<?xml version="1.0" encoding="UTF-8" standalone="no"?>
<!-- Created with Inkscape (http://www.inkscape.org/) -->
<svg id="svg2" xmlns:rdf="http://www.w3.org/1999/02/22-rdf-syntax-ns#" xmlns="http://www.w3.org/2000/svg" height="57.001" width="57" version="1.1" xmlns:cc="http://creativecommons.org/ns#" xmlns:dc="http://purl.org/dc/elements/1.1/">
 <metadata id="metadata7">
  <rdf:RDF>
   <cc:Work rdf:about="">
    <dc:format>image/svg+xml</dc:format>
    <dc:type rdf:resource="http://purl.org/dc/dcmitype/StillImage"/>
    <dc:title/>
   </cc:Work>
  </rdf:RDF>
 </metadata>
 <g id="layer1" transform="translate(-622.11659,-208.18701)">
  <g id="g6638" fill-rule="nonzero" fill="#FFF" transform="translate(-129.00335,123.77457)">
   <path id="path6640" style="baseline-shift:baseline;block-progression:tb;color:#000000;direction:ltr;text-indent:0;text-align:start;enable-background:accumulate;text-transform:none;" d="m769.13,87.166c-1.9917,0.079-3.9516,0.92037-5.3776,2.3123-0.89117,0.86994-1.5852,1.9514-2.001,3.1247l5.8778-0.37496,3.2828-4.9058c-0.5846-0.10654-1.1888-0.17912-1.7821-0.15623zm23.855,7.1556,2.0948,3.1247,1.0943,0.71868-0.21885-3.2497c-0.008-0.12894-0.0138-0.27717-0.0313-0.40621l-2.9389-0.18748zm6.9721,0.78117,0.37518,5.8432,4.9086,3.2809c0.32557-1.8788,0.0215-3.8724-0.93794-5.5307-0.96169-1.6621-2.5412-2.9434-4.3458-3.5934zm-35.11,1.3124-3.2516,0.21873c-0.13315,0.009-0.27354,0.0441-0.40643,0.0625l-0.18759,2.8435,3.1577-2.0936zm-10.84,25.185c-0.34298,1.8953-0.0243,3.9237,0.93795,5.5932,0.95958,1.6648,2.5408,2.9096,4.3458,3.5622l-0.37517-5.8744zm44.24,4.6558-3.1265,2.0936-0.71909,1.0936,3.2828-0.21872c0.12861-0.008,0.24686-0.0452,0.37518-0.0625zm-35.142,1.4061,0.21885,3.2809c0.009,0.13887,0.0425,0.26734,0.0625,0.40621l2.8764,0.18748-2.126-3.1872-1.0317-0.68743zm34.36,5.5932-5.8778,0.37496-3.2515,4.9058c1.8886,0.3332,3.9068,0.0187,5.5652-0.93741,1.6625-0.95849,2.9114-2.5425,3.5642-4.3433z"/>
   <path id="path6642" style="baseline-shift:baseline;block-progression:tb;color:#000000;direction:ltr;text-indent:0;text-align:start;enable-background:accumulate;text-transform:none;" d="m789.82,87.163c-0.50479-0.003-1.0042,0.0656-1.5007,0.15623l6.7532,10.124,3.1577,2.0935-0.31264-4.7495c-0.13046-2.0338-1.0487-4.0078-2.5325-5.4057-1.4837-1.398-3.5261-2.2081-5.5652-2.2185zm-23.574,7.1556-4.8148,0.31247c-2.6605,0.17258-5.1685,1.7554-6.5031,4.0621-0.9595,1.6583-1.2706,3.6471-0.93794,5.5307l10.161-6.7806zm38.987,27.279-10.13,6.7494-2.126,3.1872,4.7835-0.31247c2.665-0.17027,5.199-1.7196,6.5344-4.0308,0.96514-1.6703,1.2832-3.6984,0.93795-5.5932zm-44.24,4.6558,0.31264,4.8433c0.17547,2.6606,1.7214,5.1684,4.0332,6.4994,1.662,0.95683,3.6798,1.2742,5.5651,0.93741l-6.7845-10.187z"/>
   <path id="path6644" style="baseline-shift:baseline;block-progression:tb;color:#000000;direction:ltr;text-indent:0;text-align:start;enable-background:accumulate;text-transform:none;" d="m779.46,84.414c-2.6194,0.0459-5.1704,1.4473-6.625,3.625l-7.25,10.844-10.844,7.25c-2.2166,1.4805-3.625,4.0855-3.625,6.75s1.4084,5.3007,3.625,6.7812l10.844,7.25,7.25,10.844c1.4801,2.2222,4.1102,3.6562,6.7812,3.6562s5.3012-1.434,6.7812-3.6562l7.2188-10.844,10.875-7.25c2.2166-1.4805,3.625-4.1167,3.625-6.7812s-1.4084-5.2695-3.625-6.75l-10.875-7.25-7.2188-10.844c-1.5096-2.2603-4.2189-3.6766-6.9375-3.625zm0.15625,19.094,10.844,6.0625-10.844,6.0625-10.875-6.0625,10.875-6.0625zm9.5625,8.2812,1.2812,1.125-10.844,6.0625-10.875-6.0625,1.2812-1.0938,9.5938,5.1562,9.5625-5.1875zm0,3.3438,1.2812,1.125-10.844,6.0312-10.875-6.0312,1.2812-1.0938,9.5938,5.1562,9.5625-5.1875z"/>
  </g>
 </g>
</svg>
